<?xml version="1.0" encoding="UTF-8"?>
<svg width="14px" height="14px" viewBox="0 0 14 14" version="1.1" xmlns="http://www.w3.org/2000/svg" xmlns:xlink="http://www.w3.org/1999/xlink">
    <title>icon-性别-男</title>
    <g id="安卓机" stroke="none" stroke-width="1" fill="none" fill-rule="evenodd">
        <g id="MDT会诊详情-已结束" transform="translate(-88.000000, -239.000000)">
            <g id="编组-57" transform="translate(12.000000, 190.000000)">
                <g id="编组-55" transform="translate(16.000000, 16.000000)">
                    <g id="编组-53" transform="translate(60.000000, 32.000000)">
                        <g id="icon-性别-男" transform="translate(0.000000, 1.000000)">
                            <rect id="矩形" fill="#1990FF" x="0" y="0" width="14" height="14" rx="4"></rect>
                            <g id="men-line" transform="translate(2.000000, 2.000000)">
                                <rect id="矩形" x="0" y="0" width="10" height="10"></rect>
                                <path d="M6.062125,3.34860833 L7.53575,1.875 L5.625,1.875 L5.625,1.04166667 L8.95833333,1.04166667 L8.95833333,4.375 L8.125,4.375 L8.125,2.46425417 L6.651375,3.93786667 C7.05308333,4.463625 7.29166667,5.120625 7.29166667,5.83333333 C7.29166667,7.55920833 5.89254167,8.95833333 4.16666667,8.95833333 C2.440775,8.95833333 1.04166667,7.55920833 1.04166667,5.83333333 C1.04166667,4.10745833 2.440775,2.70833333 4.16666667,2.70833333 C4.879375,2.70833333 5.536375,2.94693333 6.062125,3.34860833 Z M4.16666667,8.125 C5.43233333,8.125 6.45833333,7.099 6.45833333,5.83333333 C6.45833333,4.56766667 5.43233333,3.54166667 4.16666667,3.54166667 C2.9010125,3.54166667 1.875,4.56766667 1.875,5.83333333 C1.875,7.099 2.9010125,8.125 4.16666667,8.125 Z" id="形状" fill="#FFFFFF" fill-rule="nonzero"></path>
                            </g>
                        </g>
                    </g>
                </g>
            </g>
        </g>
    </g>
</svg>