<?xml version="1.0" encoding="UTF-8"?>
<svg width="14px" height="14px" viewBox="0 0 14 14" version="1.1" xmlns="http://www.w3.org/2000/svg" xmlns:xlink="http://www.w3.org/1999/xlink">
    <title>icon-性别-女</title>
    <g id="安卓机" stroke="none" stroke-width="1" fill="none" fill-rule="evenodd">
        <g id="MDT会议-历史记录" transform="translate(-77.000000, -318.000000)">
            <g id="编组-5" transform="translate(12.000000, 296.000000)">
                <g id="编组-53" transform="translate(65.000000, 21.000000)">
                    <g id="icon-性别-女" transform="translate(0.000000, 1.000000)">
                        <rect id="矩形" fill="#FF6381" x="0" y="0" width="14" height="14" rx="4"></rect>
                        <g id="women-line" transform="translate(2.000000, 2.000000)">
                            <rect id="矩形" x="0" y="0" width="10" height="10"></rect>
                            <path d="M4.58333333,6.43079167 C3.05443333,6.22708333 1.875,4.91795833 1.875,3.33333333 C1.875,1.60744167 3.27410833,0.208333333 5,0.208333333 C6.725875,0.208333333 8.125,1.60744167 8.125,3.33333333 C8.125,4.91795833 6.94558333,6.22708333 5.41666667,6.43079167 L5.41666667,7.29166667 L7.5,7.29166667 L7.5,8.125 L5.41666667,8.125 L5.41666667,9.79166667 L4.58333333,9.79166667 L4.58333333,8.125 L2.5,8.125 L2.5,7.29166667 L4.58333333,7.29166667 L4.58333333,6.43079167 Z M5,5.625 C6.26566667,5.625 7.29166667,4.599 7.29166667,3.33333333 C7.29166667,2.06767917 6.26566667,1.04166667 5,1.04166667 C3.73434583,1.04166667 2.70833333,2.06767917 2.70833333,3.33333333 C2.70833333,4.599 3.73434583,5.625 5,5.625 Z" id="形状" fill="#FFFFFF" fill-rule="nonzero"></path>
                        </g>
                    </g>
                </g>
            </g>
        </g>
    </g>
</svg>